<svg xmlns="http://www.w3.org/2000/svg" viewBox="0 0 32.54 35.78"><defs><style>.cls-1{fill:#427783;fill-rule:evenodd;}</style></defs><g id="Capa_2" data-name="Capa 2"><g id="Capa_7" data-name="Capa 7"><path class="cls-1" d="M32.52,7.66c0,4.29.1,8.59-.11,12.88a8.87,8.87,0,0,1-4.22,7.32c-3.18,2-6.46,3.82-9.7,5.72l-3.79,2.2c0-.46-.09-.72-.09-1,0-2.36,0-4.71,0-7.07a1.4,1.4,0,0,0-.82-1.43c-2.47-1.41-4.86-3-7.38-4.27A11,11,0,0,1,0,11.18C.09,7.76,0,4.34,0,.91A7.64,7.64,0,0,1,.15,0C.52.17.77.26,1,.39,4.71,2.51,8.41,4.67,12.14,6.76a10.76,10.76,0,0,1,5.55,7.15L18,15.38,32.3,7.19C32.43,7.46,32.52,7.56,32.52,7.66ZM14.46,15.13a5.62,5.62,0,0,0-2.41-4.23c-2.68-1.78-5.5-3.34-8.32-5-.12.23-.28.38-.28.53,0,2.25-.06,4.49.07,6.73a6.23,6.23,0,0,0,3.22,5.05c2.34,1.41,4.73,2.72,7.11,4.07a5,5,0,0,0,.65.21C14.5,19.91,14.64,17.51,14.46,15.13Z"/></g></g></svg>